<svg version="1" xmlns="http://www.w3.org/2000/svg" width="346.667" height="346.667" viewBox="0 0 260.000000 260.000000"><path d="M49.2 31.4l-2 3.4 3.6 2.5c8.8 6 13.4 13.1 12.5 19.1-1.1 7.3-4.6 12.1-18.7 26.1-17.5 17.2-20.1 21.6-20 34 0 6.3.5 8.9 2.2 12.3 2.3 4.4 8.9 11.5 15.2 16.5 3.3 2.6 3.5 2.7 4.8 1 3.4-4.6 3.3-4.9-1.6-8.7-9.5-7.4-14-15.7-12.9-23.8 1-7.4 4.9-12.9 19.3-27.3C68 70.2 71.5 64.6 71.3 55c-.1-3.1-.8-7.2-1.6-9.2-1.7-4-10.6-13.3-15.4-16L51.2 28l-2 3.4zM134.3 31.6c-1.5 3.1-1.6 3.7-.3 4.4 5.7 3.3 13.8 11.6 14.1 14.4 1.1 11.1-1.1 14.9-18 31.6-15.3 15.1-19.6 21.8-20.7 32-1.1 10.3 4.6 21 15.6 29.5l5.9 4.5 2.2-3.1 2.3-3.2-3-2.4c-11.5-9.6-14.8-14.8-14.8-23.3 0-7.5 3.9-14.4 13.3-23.4 14.6-14.1 19-19 22-24.6 6.4-11.9 4.8-21.6-5.1-31.2-3.2-3.2-7.1-6.4-8.8-7.3-3-1.6-3-1.6-4.7 2.1zM219.9 30.8c-.7 1.5-1.5 3-1.7 3.3-.1.4 1.9 2.3 4.6 4.3 5.8 4.2 10.2 10.3 10.8 14.8 1 7-4.6 16.4-15.5 26.2-13 11.5-20 20.6-22.6 29.2-1.9 6.4-1.1 14.6 2.2 20.7 3 5.4 11.5 14.4 15.9 16.7 2.4 1.3 2.8 1.3 4.5-.9 2-2.4 2.5-5.1 1-5.1-1.8 0-11.2-9.3-13.5-13.4-7.1-12.1-2.2-23.5 17.2-40.5 17.5-15.3 23-30.2 15.8-42.6-2.7-4.5-10.2-11.7-14.7-14.1-2.5-1.2-2.7-1.1-4 1.4zM206.6 183.5c-5.4 1.9-8.6 5.4-9.3 10.2-1.1 8.1 3.7 12.1 18.5 15.4 5.4 1.2 8.2 3.3 8.2 6.3 0 4.3-3.9 6.8-10.5 6.8-5.6 0-8.3-1.6-10.1-5.7-1.1-2.8-1.9-3.4-4.4-3.3-3.5.1-3.9 2.1-1.4 7.4 2.6 5.4 7.6 7.9 15.9 7.8 11 0 17.6-5 17.8-13.2.2-7.5-3.1-10.5-14.3-13.2-11.3-2.7-15.2-6.8-10.9-11.1 4.1-4.1 15.3-1.9 16.6 3.2.7 2.6 7.3 2.8 7.3.1 0-2.8-3.7-8-6.8-9.6-4.1-2.1-12.1-2.6-16.6-1.1zM38 184c-7.4 1.3-12 5.8-12 11.5 0 2.1.5 2.5 3.1 2.5 2.4 0 3.2-.6 4-2.8 1.3-3.7 4.2-5.4 9.6-5.4 5.6 0 8.9 2.2 9.5 6.2.6 4.1-1.7 5.6-10.2 6.5-11.8 1.3-17.5 5.2-18.5 12.5-.8 6.6 4.3 13.2 11 14.3 4.3.6 12.1-1.6 15.2-4.4 1.9-1.8 2.7-2.1 3.1-1 .9 2.7 4.2 5.1 7 5.1 3.5 0 4.7-1 4.8-3.8.1-1.7-.4-2.2-2.2-2.2-1.8 0-2.4-.6-2.5-2.3 0-1.2-.1-8.3-.3-15.7-.1-9.8-.6-14.1-1.6-15.8-2.5-3.8-12.8-6.5-20-5.2zm14.2 27.2c-.2 5.2-2.4 8.6-6.7 10.4-9.2 3.8-17.3-1.5-13.4-8.7 1.2-2.3 3.9-3.5 9.5-4.4 2.2-.3 5.3-.9 6.9-1.4 1.7-.4 3.2-.7 3.4-.5.2.2.4 2.3.3 4.6zM125.9 187.7c-.1 2.1-.1 5.9-.1 8.5l.1 4.8H108.2l.1 4 .1 4h17.5v6.7c-.2 11-.4 10.5 3.9 10.1l3.7-.3.3-8.3.3-8.2H150l-.3-4-.2-4h-15.4l-.3-8.3-.3-8.2-3.7-.3c-3.8-.3-3.8-.3-3.9 3.5z"/></svg>